<svg xmlns="http://www.w3.org/2000/svg" width="118.19" height="6" viewBox="0 0 118.19 6">
  <defs>
    <style>
      .cls-1 {
        fill: #c45f1c;
        fill-rule: evenodd;
      }
    </style>
  </defs>
  <path id="Фигура_1_копия_9" data-name="Фигура 1 копия 9" class="cls-1" d="M899.5,1557.47l-0.488-.81,8.448-4.66,0.487,0.81Zm15.194,0.52,0.478-.82-8.275-4.76-0.478.82Zm0.413-.52-0.488-.81,8.448-4.66,0.487,0.81Zm15.194,0.52,0.478-.82-8.275-4.76-0.478.82Zm0.413-.52-0.488-.81,8.448-4.66,0.487,0.81Zm15.194,0.52,0.478-.82-8.275-4.76-0.478.82Zm0.413-.52-0.488-.81,8.447-4.66,0.488,0.81Zm15.194,0.52,0.478-.82-8.275-4.76-0.478.82Zm0.413-.52-0.488-.81,8.447-4.66,0.488,0.81Zm15.194,0.52,0.478-.82-8.275-4.76-0.478.82Zm0.412-.52-0.487-.81L985.5,1552l0.488,0.81Zm15.2,0.52,0.478-.82-8.276-4.76-0.477.82Zm0.412-.52-0.487-.81,8.445-4.66,0.49,0.81Zm15.2,0.52,0.47-.82-8.27-4.76-0.48.82Zm0.41-.52-0.49-.81,8.45-4.66,0.49,0.81Zm7.4-5.06-0.48.82" transform="translate(-899 -1552)"/>
</svg>
